<?xml version="1.0" encoding="UTF-8"?>
<!DOCTYPE svg PUBLIC "-//W3C//DTD SVG 1.1//EN" "http://www.w3.org/Graphics/SVG/1.1/DTD/svg11.dtd">
<svg xmlns="http://www.w3.org/2000/svg" xmlns:xlink="http://www.w3.org/1999/xlink" version="1.1" width="642px" height="223px" viewBox="-0.5 -0.5 642 223" style="background-color: rgb(255, 255, 255);"><defs/><g><path d="M 410 37 L 410 74.63" fill="none" stroke="#6c8ebf" stroke-miterlimit="10" pointer-events="stroke"/><path d="M 410 79.88 L 406.5 72.88 L 410 74.63 L 413.5 72.88 Z" fill="#6c8ebf" stroke="#6c8ebf" stroke-miterlimit="10" pointer-events="all"/><path d="M 380 37 L 380 11 L 440 11 L 440 37" fill="#dae8fc" stroke="#6c8ebf" stroke-miterlimit="10" pointer-events="all"/><path d="M 380 37 L 440 37" fill="none" stroke="#6c8ebf" stroke-miterlimit="10" pointer-events="all"/><g fill="rgb(0, 0, 0)" font-family="Helvetica" text-anchor="middle" font-size="12px"><text x="409.5" y="28.5">Entry</text></g><path d="M 70 93 L 70 65 L 70.17 44" fill="none" stroke="#6c8ebf" stroke-miterlimit="10" pointer-events="stroke"/><path d="M 70.23 37 L 72.26 40.52 L 70.17 44 L 68.14 40.48 Z" fill="#6c8ebf" stroke="#6c8ebf" stroke-miterlimit="10" pointer-events="all"/><path d="M 20 119 L 20 93 L 120 93 L 120 119" fill="#dae8fc" stroke="#6c8ebf" stroke-miterlimit="10" pointer-events="all"/><path d="M 20 119 L 120 119" fill="none" stroke="#6c8ebf" stroke-miterlimit="10" pointer-events="all"/><g fill="rgb(0, 0, 0)" font-family="Helvetica" text-anchor="middle" font-size="12px"><text x="69.5" y="110.5">SortSettings</text></g><path d="M 280 211 L 280 171 Q 280 171 280 171 L 170 171 Q 170 171 170 171 L 170 211" fill="#dae8fc" stroke="#6c8ebf" stroke-width="2" stroke-miterlimit="10" pointer-events="all"/><path d="M 170 211 L 280 211" fill="none" stroke="#6c8ebf" stroke-width="2" stroke-miterlimit="10" pointer-events="all"/><g fill="rgb(0, 0, 0)" font-family="Helvetica" text-anchor="middle" font-size="14px"><text x="224.5" y="188">&lt;enum&gt;</text><text x="224.5" y="205">SortPriotity</text></g><path d="M 280 133 L 280 93 Q 280 93 280 93 L 170 93 Q 170 93 170 93 L 170 133" fill="#dae8fc" stroke="#6c8ebf" stroke-width="2" stroke-miterlimit="10" pointer-events="all"/><path d="M 170 133 L 280 133" fill="none" stroke="#6c8ebf" stroke-width="2" stroke-miterlimit="10" pointer-events="all"/><g fill="rgb(0, 0, 0)" font-family="Helvetica" text-anchor="middle" font-size="14px"><text x="224.5" y="110">&lt;enum&gt;</text><text x="224.5" y="127">SortDirection</text></g><path d="M 10 37 L 10 11 L 130 11 L 130 37" fill="#dae8fc" stroke="#6c8ebf" stroke-miterlimit="10" pointer-events="all"/><path d="M 10 37 L 130 37" fill="none" stroke="#6c8ebf" stroke-miterlimit="10" pointer-events="all"/><g fill="rgb(0, 0, 0)" font-family="Helvetica" text-anchor="middle" font-size="12px"><text x="69.5" y="28.5">PreviewRequest</text></g><path d="M 170 113 L 127.91 107.11" fill="none" stroke="#6c8ebf" stroke-miterlimit="10" pointer-events="stroke"/><path d="M 120.98 106.14 L 124.73 104.58 L 127.91 107.11 L 124.16 108.66 Z" fill="#6c8ebf" stroke="#6c8ebf" stroke-miterlimit="10" pointer-events="all"/><path d="M 167.91 168.24 L 124.87 112.33" fill="none" stroke="#6c8ebf" stroke-miterlimit="10" pointer-events="stroke"/><path d="M 120.6 106.78 L 124.37 108.3 L 124.87 112.33 L 121.11 110.81 Z" fill="#6c8ebf" stroke="#6c8ebf" stroke-miterlimit="10" pointer-events="all"/><path d="M 530 141 L 484.64 98.36" fill="none" stroke="#6c8ebf" stroke-miterlimit="10" pointer-events="stroke"/><path d="M 480.81 94.77 L 488.31 97.01 L 484.64 98.36 L 483.52 102.11 Z" fill="#6c8ebf" stroke="#6c8ebf" stroke-miterlimit="10" pointer-events="all"/><path d="M 630 161 L 630 121 Q 630 121 630 121 L 530 121 Q 530 121 530 121 L 530 161" fill="#dae8fc" stroke="#6c8ebf" stroke-width="2" stroke-miterlimit="10" pointer-events="all"/><path d="M 530 161 L 630 161" fill="none" stroke="#6c8ebf" stroke-width="2" stroke-miterlimit="10" pointer-events="all"/><g fill="rgb(0, 0, 0)" font-family="Helvetica" text-anchor="middle" font-size="14px"><text x="579.5" y="138">&lt;enum&gt;</text><text x="579.5" y="155">Priotity</text></g><path d="M 530 73 L 485.87 91.53" fill="none" stroke="#6c8ebf" stroke-miterlimit="10" pointer-events="stroke"/><path d="M 481.03 93.57 L 486.13 87.63 L 485.87 91.53 L 488.84 94.08 Z" fill="#6c8ebf" stroke="#6c8ebf" stroke-miterlimit="10" pointer-events="all"/><path d="M 630 93 L 630 53 Q 630 53 630 53 L 530 53 Q 530 53 530 53 L 530 93" fill="#dae8fc" stroke="#6c8ebf" stroke-width="2" stroke-miterlimit="10" pointer-events="all"/><path d="M 530 93 L 630 93" fill="none" stroke="#6c8ebf" stroke-width="2" stroke-miterlimit="10" pointer-events="all"/><g fill="rgb(0, 0, 0)" font-family="Helvetica" text-anchor="middle" font-size="14px"><text x="579.5" y="70">&lt;enum&gt;</text><text x="579.5" y="87">Language</text></g><path d="M 340 107 L 340 81 L 480 81 L 480 107" fill="#dae8fc" stroke="#6c8ebf" stroke-miterlimit="10" pointer-events="all"/><path d="M 340 107 L 480 107" fill="none" stroke="#6c8ebf" stroke-miterlimit="10" pointer-events="all"/><g fill="rgb(0, 0, 0)" font-family="Helvetica" text-anchor="middle" font-size="12px"><text x="409.5" y="98.5">Article extends Entry</text></g><path d="M 290 51 L 290 11 Q 290 11 290 11 L 170 11 Q 170 11 170 11 L 170 51" fill="#dae8fc" stroke="#6c8ebf" stroke-width="2" stroke-miterlimit="10" pointer-events="all"/><path d="M 170 51 L 290 51" fill="none" stroke="#6c8ebf" stroke-width="2" stroke-miterlimit="10" pointer-events="all"/><g fill="rgb(0, 0, 0)" font-family="Helvetica" text-anchor="middle" font-size="14px"><text x="229.5" y="28">&lt;enum&gt;</text><text x="229.5" y="45">RequestType</text></g></g></svg>